<svg width="85" height="23" viewBox="0 0 85 23" fill="none" xmlns="http://www.w3.org/2000/svg">
<path d="M22.7662 15V5.2H30.2982V6.964H24.7962V9.204H28.4222V10.912H24.7962V13.236H30.3542V15H22.7662ZM31.5236 15V7.706H33.4416V8.308C33.9923 7.81333 34.6736 7.566 35.4856 7.566C36.055 7.566 36.5543 7.692 36.9836 7.944C37.4223 8.18667 37.763 8.52733 38.0056 8.966C38.2483 9.39533 38.3696 9.89933 38.3696 10.478V15H36.4516V10.758C36.4516 10.282 36.3163 9.90867 36.0456 9.638C35.775 9.358 35.4063 9.218 34.9396 9.218C34.613 9.218 34.3236 9.28333 34.0716 9.414C33.8196 9.53533 33.6096 9.71267 33.4416 9.946V15H31.5236ZM41.6383 15L38.5163 7.706H40.6023L42.6043 12.564L44.5923 7.706H46.6363L43.5003 15H41.6383ZM47.2534 15V7.706H49.1714V15H47.2534ZM48.2054 6.838C47.9067 6.838 47.65 6.73067 47.4354 6.516C47.2207 6.30133 47.1134 6.04467 47.1134 5.746C47.1134 5.438 47.2207 5.18133 47.4354 4.976C47.65 4.76133 47.9067 4.654 48.2054 4.654C48.5134 4.654 48.77 4.76133 48.9754 4.976C49.19 5.18133 49.2974 5.438 49.2974 5.746C49.2974 6.04467 49.19 6.30133 48.9754 6.516C48.77 6.73067 48.5134 6.838 48.2054 6.838ZM52.8554 15.126C52.3327 15.126 51.8707 15.0327 51.4694 14.846C51.068 14.65 50.7554 14.384 50.5314 14.048C50.3074 13.712 50.1954 13.3247 50.1954 12.886C50.1954 12.186 50.4567 11.6447 50.9794 11.262C51.5114 10.87 52.2394 10.674 53.1634 10.674C53.798 10.674 54.3954 10.772 54.9554 10.968V10.436C54.9554 10.016 54.8247 9.69867 54.5634 9.484C54.302 9.26933 53.9194 9.162 53.4154 9.162C53.1074 9.162 52.776 9.21333 52.4214 9.316C52.0667 9.40933 51.656 9.55867 51.1894 9.764L50.4894 8.35C51.068 8.08867 51.6187 7.89267 52.1414 7.762C52.6734 7.63133 53.2054 7.566 53.7374 7.566C54.7174 7.566 55.478 7.804 56.0194 8.28C56.57 8.74667 56.8454 9.40933 56.8454 10.268V15H54.9554V14.482C54.6567 14.706 54.3347 14.8693 53.9894 14.972C53.644 15.0747 53.266 15.126 52.8554 15.126ZM52.0154 12.844C52.0154 13.124 52.1367 13.348 52.3794 13.516C52.622 13.6747 52.944 13.754 53.3454 13.754C53.6627 13.754 53.9567 13.7167 54.2274 13.642C54.498 13.558 54.7407 13.4367 54.9554 13.278V12.214C54.722 12.1207 54.4794 12.0507 54.2274 12.004C53.9754 11.9573 53.7047 11.934 53.4154 11.934C52.9767 11.934 52.6314 12.018 52.3794 12.186C52.1367 12.3447 52.0154 12.564 52.0154 12.844ZM58.157 15V7.706H60.075V8.518C60.3083 8.20067 60.5883 7.958 60.915 7.79C61.2416 7.622 61.6103 7.538 62.021 7.538C62.3756 7.54733 62.6416 7.60333 62.819 7.706V9.386C62.679 9.32067 62.525 9.274 62.357 9.246C62.189 9.20867 62.0163 9.19 61.839 9.19C61.4656 9.19 61.125 9.28333 60.817 9.47C60.509 9.65667 60.2616 9.92267 60.075 10.268V15H58.157Z" fill="url(#paint0_linear_2426_735)"/>
<line x1="21.5" y1="22.5" x2="63.5" y2="22.5" stroke="url(#paint1_linear_2426_735)"/>
<defs>
<linearGradient id="paint0_linear_2426_735" x1="21.5" y1="10" x2="63.5" y2="10" gradientUnits="userSpaceOnUse">
<stop stop-color="#2F4ACD"/>
<stop offset="1" stop-color="#182567"/>
</linearGradient>
<linearGradient id="paint1_linear_2426_735" x1="21.5" y1="23.5" x2="63.5" y2="23.5" gradientUnits="userSpaceOnUse">
<stop stop-color="#2F4ACD"/>
<stop offset="1" stop-color="#182567"/>
</linearGradient>
</defs>
</svg>
