<svg width="49" height="48" viewBox="0 0 49 48" fill="none" xmlns="http://www.w3.org/2000/svg">
<rect width="49" height="48" rx="24" fill="url(#paint0_radial_2689_541)"/>
<path d="M33.0939 18.7137L27.7093 14.1766C25.8354 12.6078 23.1755 12.6078 21.2908 14.1766L15.9063 18.7137C14.7001 19.7295 13.9894 21.2645 14.0001 22.8897V29.6502C14.0001 32.6073 16.294 35 19.1155 35H22.077V29.6502C22.077 28.2507 23.1647 27.1108 24.5001 27.1108C25.8354 27.1108 26.9231 28.2507 26.9231 29.6502V35H29.8846C32.7062 35 35 32.6073 35 29.6502V22.8897C35 21.2645 34.3 19.7295 33.0939 18.7137ZM33.3846 29.6502C33.3846 31.6705 31.8123 33.307 29.8846 33.307H28.5385V29.6502C28.5385 27.314 26.7293 25.4179 24.5001 25.4179C22.2708 25.4179 20.4616 27.314 20.4616 29.6502V33.307H19.1155C17.1878 33.307 15.6155 31.6705 15.6155 29.6502V22.8897C15.6155 21.7836 16.0893 20.734 16.9186 20.0342L22.3032 15.4971C23.5847 14.4249 25.4047 14.4249 26.697 15.4971L32.0816 20.0342C32.9108 20.7227 33.3846 21.7723 33.3846 22.8897V29.6502Z" fill="white"/>
<defs>
<radialGradient id="paint0_radial_2689_541" cx="0" cy="0" r="1" gradientUnits="userSpaceOnUse" gradientTransform="translate(49 1.09577e-06) rotate(126.697) scale(40.8938 29.8816)">
<stop stop-color="#2F4ACD"/>
<stop offset="1" stop-color="#0D0D0D"/>
</radialGradient>
</defs>
</svg>
