<svg width="134" height="50" viewBox="0 0 134 50" fill="none" xmlns="http://www.w3.org/2000/svg">
<g clip-path="url(#clip0_2689_491)">
<path d="M7.49544 32.8679H4.77851L7.28006 16.8491H0.102386L0.538341 14.0515H17.6418L17.2058 16.8491H9.9944L7.49285 32.8679H7.49544Z" fill="#102266"/>
<path d="M22.6059 32.8682C21.9779 32.8682 21.3915 32.7521 20.8491 32.5175C20.3068 32.2854 19.8475 31.9584 19.4712 31.5418C19.0975 31.1252 18.8251 30.6348 18.6564 30.0678C18.4877 29.5036 18.4618 28.8786 18.5837 28.1904L20.7946 14.0491H23.5479L21.337 28.1904C21.2643 28.7072 21.3915 29.1476 21.7184 29.5167C22.0454 29.8859 22.484 30.0678 23.0419 30.0678H32.1372C32.6926 30.0678 33.2012 29.8833 33.6605 29.5167C34.1198 29.1476 34.3845 28.7072 34.4571 28.1904L36.668 14.0491H39.4213L37.2104 28.1904C37.0884 28.8786 36.8549 29.5036 36.5046 30.0678C36.1542 30.6321 35.7261 31.1226 35.2175 31.5418C34.7114 31.9584 34.1535 32.2854 33.5515 32.5175C32.9469 32.7521 32.3319 32.8682 31.7039 32.8682H22.6085H22.6059Z" fill="#102266"/>
<path d="M95.2987 32.8682C82.5937 32.7389 75.7482 24.1666 75.7482 14.1071V0.11602H82.695C95.3999 0.218857 102.245 8.79121 102.245 18.8507V32.8655H95.2987V32.8682ZM95.2987 26.3209V19.4678C95.2987 9.17619 87.8979 6.66065 82.695 6.66065V13.5138C82.695 23.7816 90.1217 26.3209 95.2987 26.3209Z" fill="#2F4ACD"/>
<path d="M60.9569 6.63955H73.3219V0H60.9569C51.3244 0 46.2331 5.71402 46.2331 16.525C46.2331 27.3361 51.3244 33.0026 60.9569 33.0026H75.7482V26.3631H60.9569C55.139 26.3631 52.7672 23.5127 52.7672 16.525C52.7672 9.53743 55.139 6.63955 60.9569 6.63955Z" fill="#102266"/>
<path d="M84.1559 33H75.7482V26.3604C75.7482 26.3604 77.9072 31.1938 84.1559 33Z" fill="#102266"/>
<path d="M93.4926 0.245224H102.243V6.4787C102.243 6.4787 99.7387 2.05146 93.4926 0.245224Z" fill="#102266"/>
<path d="M123.117 0.245224H102.245V6.4787H123.117C128.46 6.4787 128.46 14.7742 123.117 14.7742H114.854C114.636 14.7742 114.421 14.7821 114.208 14.7979C114.146 14.8006 114.086 14.8058 114.027 14.8111C113.863 14.8243 113.697 14.8427 113.536 14.8638C113.484 14.8718 113.43 14.877 113.378 14.8849C113.17 14.9166 112.965 14.9509 112.763 14.993C112.724 15.001 112.688 15.0115 112.651 15.0194C112.483 15.0563 112.316 15.0985 112.15 15.146C112.091 15.1618 112.034 15.1776 111.977 15.1961C111.81 15.2462 111.647 15.2989 111.486 15.3569C111.452 15.3701 111.419 15.3807 111.385 15.3912C111.193 15.4624 111.003 15.5389 110.817 15.6206C110.77 15.6417 110.723 15.6628 110.676 15.6839C110.531 15.7498 110.388 15.8184 110.246 15.8922C110.196 15.9186 110.144 15.9423 110.095 15.9713C109.916 16.0689 109.737 16.1664 109.566 16.2745C109.566 16.2745 109.563 16.2745 109.561 16.2772C109.389 16.3827 109.221 16.496 109.057 16.6121C109.01 16.6437 108.966 16.678 108.922 16.7096C108.793 16.8046 108.665 16.9021 108.541 17.0023C108.504 17.0313 108.466 17.0603 108.429 17.092C108.274 17.2212 108.12 17.3557 107.973 17.4928C107.947 17.5165 107.923 17.5429 107.897 17.5666C107.773 17.6853 107.653 17.8039 107.537 17.9278C107.498 17.9674 107.459 18.0096 107.422 18.0518C107.303 18.181 107.186 18.3128 107.075 18.4499C107.056 18.471 107.036 18.4948 107.018 18.5159C106.888 18.6741 106.763 18.8376 106.644 19.0037C106.615 19.0432 106.589 19.0828 106.561 19.1223C106.467 19.2542 106.377 19.3913 106.291 19.5284C106.262 19.5732 106.234 19.6181 106.205 19.6629C105.235 21.2503 104.672 23.1224 104.672 25.1343V32.8787H110.806V25.1343C110.806 22.8719 112.586 21.0129 114.862 21.0129H124.313C129.41 20.4091 133.318 15.9344 133.318 10.6054C133.318 4.87287 128.766 0.247861 123.125 0.247861L123.117 0.245224Z" fill="#102266"/>
</g>
<path d="M0.677357 45V39.773H2.94737C3.29086 39.773 3.58706 39.8352 3.83596 39.9597C4.08985 40.0841 4.28648 40.2608 4.42587 40.4898C4.56526 40.7139 4.63495 40.9777 4.63495 41.2814C4.63495 41.585 4.56526 41.8514 4.42587 42.0803C4.28648 42.3044 4.08985 42.4811 3.83596 42.6105C3.58208 42.735 3.28588 42.7972 2.94737 42.7972H1.25233V45H0.677357ZM1.25233 42.2969H2.90257C3.25601 42.2969 3.53728 42.2073 3.74636 42.0281C3.95544 41.8439 4.05998 41.5975 4.05998 41.2888C4.05998 40.9802 3.95544 40.7363 3.74636 40.557C3.53728 40.3778 3.25601 40.2882 2.90257 40.2882H1.25233V42.2969ZM6.62786 45.0747C6.27442 45.0747 5.95084 44.99 5.65713 44.8208C5.3684 44.6466 5.13941 44.4126 4.97015 44.1189C4.8009 43.8252 4.71627 43.4966 4.71627 43.1332C4.71627 42.7698 4.8009 42.4413 4.97015 42.1475C5.13941 41.8538 5.3684 41.6224 5.65713 41.4531C5.95084 41.2789 6.27442 41.1918 6.62786 41.1918C6.98628 41.1918 7.30986 41.2789 7.59859 41.4531C7.88732 41.6224 8.11631 41.8538 8.28557 42.1475C8.45482 42.4413 8.53945 42.7698 8.53945 43.1332C8.53945 43.4966 8.45482 43.8252 8.28557 44.1189C8.11631 44.4126 7.88732 44.6466 7.59859 44.8208C7.30986 44.99 6.98628 45.0747 6.62786 45.0747ZM6.62786 44.5818C6.88174 44.5818 7.11074 44.5171 7.31484 44.3877C7.52392 44.2583 7.6882 44.084 7.80767 43.865C7.93212 43.646 7.99435 43.402 7.99435 43.1332C7.99435 42.8594 7.93212 42.6155 7.80767 42.4014C7.6882 42.1824 7.52392 42.0082 7.31484 41.8787C7.11074 41.7493 6.88174 41.6846 6.62786 41.6846C6.37398 41.6846 6.1425 41.7493 5.93342 41.8787C5.72931 42.0082 5.56504 42.1824 5.44058 42.4014C5.32111 42.6155 5.26137 42.8594 5.26137 43.1332C5.26137 43.402 5.32111 43.646 5.44058 43.865C5.56504 44.084 5.72931 44.2583 5.93342 44.3877C6.1425 44.5171 6.37398 44.5818 6.62786 44.5818ZM9.84644 45L8.79357 41.259H9.33867L10.1451 44.2458L11.0785 41.259H11.5713L12.4973 44.2458L13.3112 41.259H13.8339L12.7736 45H12.2434L11.3175 42.0057L10.3841 45H9.84644ZM16.017 45.0672C15.6586 45.0672 15.3325 44.9826 15.0388 44.8133C14.7501 44.6391 14.5186 44.4051 14.3443 44.1114C14.1751 43.8177 14.0905 43.4891 14.0905 43.1257C14.0905 42.7673 14.1726 42.4437 14.3369 42.155C14.5012 41.8613 14.7227 41.6298 15.0015 41.4606C15.2802 41.2863 15.5914 41.1992 15.9349 41.1992C16.2684 41.1992 16.5671 41.2863 16.8309 41.4606C17.0997 41.6298 17.3113 41.8613 17.4656 42.155C17.6249 42.4437 17.7046 42.7673 17.7046 43.1257V43.2975H14.6356C14.6654 43.5414 14.7426 43.7605 14.867 43.9546C14.9965 44.1487 15.1632 44.3031 15.3673 44.4176C15.5715 44.5271 15.7955 44.5818 16.0394 44.5818C16.2335 44.5818 16.4227 44.552 16.6069 44.4922C16.7911 44.4325 16.9454 44.3479 17.0699 44.2384L17.4133 44.6042C17.2043 44.7586 16.9852 44.8755 16.7562 44.9552C16.5322 45.0299 16.2858 45.0672 16.017 45.0672ZM14.6505 42.8569H17.152C17.1221 42.6329 17.0475 42.4338 16.928 42.2596C16.8135 42.0803 16.6691 41.941 16.4949 41.8414C16.3207 41.7369 16.129 41.6846 15.9199 41.6846C15.7059 41.6846 15.5092 41.7344 15.33 41.8339C15.1508 41.9335 15.0015 42.0729 14.882 42.2521C14.7625 42.4263 14.6853 42.6279 14.6505 42.8569ZM18.4024 45V41.259H18.955V41.7891C19.0695 41.595 19.2138 41.4456 19.3881 41.3411C19.5673 41.2316 19.7714 41.1768 20.0004 41.1768C20.1298 41.1768 20.2468 41.1942 20.3513 41.2291V41.7369C20.2866 41.712 20.2219 41.6945 20.1572 41.6846C20.0925 41.6746 20.0277 41.6696 19.963 41.6696C19.734 41.6696 19.5324 41.7369 19.3582 41.8713C19.1889 42.0007 19.0545 42.1899 18.955 42.4388V45H18.4024ZM22.4014 45.0672C22.043 45.0672 21.7169 44.9826 21.4232 44.8133C21.1345 44.6391 20.903 44.4051 20.7288 44.1114C20.5595 43.8177 20.4749 43.4891 20.4749 43.1257C20.4749 42.7673 20.557 42.4437 20.7213 42.155C20.8856 41.8613 21.1071 41.6298 21.3859 41.4606C21.6646 41.2863 21.9758 41.1992 22.3193 41.1992C22.6528 41.1992 22.9515 41.2863 23.2153 41.4606C23.4841 41.6298 23.6957 41.8613 23.85 42.155C24.0093 42.4437 24.089 42.7673 24.089 43.1257V43.2975H21.02C21.0499 43.5414 21.127 43.7605 21.2515 43.9546C21.3809 44.1487 21.5477 44.3031 21.7518 44.4176C21.9559 44.5271 22.1799 44.5818 22.4238 44.5818C22.618 44.5818 22.8071 44.552 22.9913 44.4922C23.1755 44.4325 23.3298 44.3479 23.4543 44.2384L23.7978 44.6042C23.5887 44.7586 23.3696 44.8755 23.1407 44.9552C22.9166 45.0299 22.6702 45.0672 22.4014 45.0672ZM21.0349 42.8569H23.5364C23.5065 42.6329 23.4319 42.4338 23.3124 42.2596C23.1979 42.0803 23.0535 41.941 22.8793 41.8414C22.7051 41.7369 22.5134 41.6846 22.3043 41.6846C22.0903 41.6846 21.8936 41.7344 21.7144 41.8339C21.5352 41.9335 21.3859 42.0729 21.2664 42.2521C21.1469 42.4263 21.0698 42.6279 21.0349 42.8569ZM26.4968 45.0597C26.1483 45.0597 25.8297 44.9751 25.541 44.8059C25.2572 44.6316 25.0307 44.4001 24.8615 44.1114C24.6972 43.8177 24.6151 43.4891 24.6151 43.1257C24.6151 42.7623 24.6972 42.4363 24.8615 42.1475C25.0307 41.8588 25.2572 41.6298 25.541 41.4606C25.8297 41.2863 26.1508 41.1992 26.5043 41.1992C26.7233 41.1992 26.9349 41.2366 27.139 41.3112C27.3431 41.3809 27.5297 41.4855 27.699 41.6248V39.773L28.2516 39.6461V45H27.7065V44.6042C27.3779 44.9079 26.9747 45.0597 26.4968 45.0597ZM26.5491 44.5744C26.783 44.5744 26.9996 44.5296 27.1987 44.44C27.4028 44.3454 27.5696 44.2159 27.699 44.0517V42.1998C27.5696 42.0405 27.4028 41.9161 27.1987 41.8265C26.9996 41.7319 26.783 41.6846 26.5491 41.6846C26.2902 41.6846 26.0537 41.7468 25.8397 41.8713C25.6306 41.9957 25.4638 42.1675 25.3394 42.3865C25.2199 42.6006 25.1602 42.8445 25.1602 43.1183C25.1602 43.3921 25.2199 43.6385 25.3394 43.8575C25.4638 44.0766 25.6306 44.2508 25.8397 44.3802C26.0537 44.5097 26.2902 44.5744 26.5491 44.5744ZM30.6462 45V39.773L31.1988 39.6461V41.6547C31.5174 41.3511 31.9181 41.1992 32.401 41.1992C32.7544 41.1992 33.073 41.2863 33.3568 41.4606C33.6405 41.6298 33.8645 41.8588 34.0288 42.1475C34.1981 42.4363 34.2827 42.7623 34.2827 43.1257C34.2827 43.4891 34.1981 43.8177 34.0288 44.1114C33.8645 44.4001 33.6405 44.6316 33.3568 44.8059C33.073 44.9751 32.7519 45.0597 32.3935 45.0597C32.1745 45.0597 31.9604 45.0224 31.7513 44.9477C31.5472 44.8731 31.3606 44.766 31.1913 44.6266V45H30.6462ZM32.3487 44.5744C32.6125 44.5744 32.849 44.5121 33.0581 44.3877C33.2672 44.2583 33.4314 44.0865 33.5509 43.8725C33.6754 43.6534 33.7376 43.407 33.7376 43.1332C33.7376 42.8594 33.6754 42.613 33.5509 42.394C33.4314 42.1749 33.2672 42.0032 33.0581 41.8787C32.849 41.7493 32.6125 41.6846 32.3487 41.6846C32.1147 41.6846 31.8957 41.7319 31.6916 41.8265C31.4925 41.9161 31.3282 42.043 31.1988 42.2073V44.0591C31.3282 44.2184 31.495 44.3454 31.6991 44.44C31.9032 44.5296 32.1197 44.5744 32.3487 44.5744ZM35.0234 46.598C34.9537 46.598 34.8865 46.593 34.8218 46.583C34.7621 46.5781 34.7123 46.5706 34.6724 46.5606V46.0603C34.7571 46.0802 34.8616 46.0902 34.9861 46.0902C35.3146 46.0902 35.5635 45.8961 35.7328 45.5078L35.9568 44.9925L34.4335 41.259H35.0458L36.2555 44.328L37.5622 41.259H38.1596L36.2928 45.5824C36.1883 45.8214 36.0763 46.0155 35.9568 46.1649C35.8373 46.3142 35.7004 46.4237 35.5461 46.4934C35.3968 46.5631 35.2225 46.598 35.0234 46.598Z" fill="#102266"/>
<g clip-path="url(#clip1_2689_491)">
<mask id="mask0_2689_491" style="mask-type:luminance" maskUnits="userSpaceOnUse" x="43" y="36" width="13" height="13">
<path d="M55.8365 36H43.4454V48.219H55.8365V36Z" fill="white"/>
</mask>
<g mask="url(#mask0_2689_491)">
<path d="M52.7633 36H46.5186C44.8213 36 43.4454 37.3568 43.4454 39.0305V45.1885C43.4454 46.8622 44.8213 48.219 46.5186 48.219H52.7633C54.4606 48.219 55.8365 46.8622 55.8365 45.1885V39.0305C55.8365 37.3568 54.4606 36 52.7633 36Z" fill="#010101"/>
<path d="M48.0121 38.6182L46.1009 40.5029C45.9381 40.6634 45.9381 40.9237 46.1009 41.0842L50.6832 45.6028C50.8459 45.7634 51.1098 45.7634 51.2726 45.6028L53.1839 43.7181C53.3467 43.5575 53.3467 43.2974 53.1839 43.1368L48.6016 38.6182C48.4388 38.4576 48.1749 38.4576 48.0121 38.6182Z" fill="white"/>
<path d="M52.6728 41.318V39.2526C52.6728 39.1811 52.6132 39.1224 52.5407 39.1224H50.4462C50.3271 39.1224 50.2675 39.2628 50.353 39.347L52.4475 41.4125C52.5304 41.4942 52.6753 41.4354 52.6753 41.3206L52.6728 41.318Z" fill="white"/>
<path d="M46.6092 42.9035V44.9689C46.6092 45.0404 46.6687 45.0992 46.7412 45.0992H48.8358C48.9549 45.0992 49.0144 44.9587 48.9289 44.8744L46.8344 42.809C46.7516 42.7274 46.6066 42.7861 46.6066 42.901L46.6092 42.9035Z" fill="white"/>
</g>
<path d="M61.6278 38.4195L62.7831 38.8995V45.6183H61.8245L61.5885 45.1432C61.5033 45.2434 61.4099 45.329 61.3083 45.4001C61.2067 45.468 61.0969 45.5245 60.979 45.5698C60.8642 45.615 60.7414 45.6473 60.6102 45.6667C60.4792 45.6861 60.3415 45.6958 60.1973 45.6958C59.8368 45.6958 59.5041 45.6312 59.1993 45.5019C58.8946 45.3726 58.6308 45.1949 58.4079 44.9687C58.1884 44.7392 58.0147 44.471 57.8868 44.164C57.7623 43.857 57.7 43.5273 57.7 43.175C57.7 42.8196 57.7623 42.4883 57.8868 42.1813C58.0147 41.8743 58.1884 41.6076 58.4079 41.3814C58.6275 41.1552 58.8897 40.9775 59.1945 40.8482C59.5026 40.7189 59.8368 40.6543 60.1973 40.6543C60.3382 40.6543 60.4742 40.6656 60.6054 40.6882C60.7364 40.7076 60.8627 40.7383 60.9838 40.7803C61.1051 40.8223 61.2198 40.8773 61.3279 40.9451C61.4361 41.013 61.5361 41.0954 61.6278 41.1924V38.4195ZM61.6377 43.1702C61.6377 42.944 61.6032 42.742 61.5344 42.5642C61.4689 42.3865 61.3738 42.2362 61.2493 42.1134C61.128 41.9906 60.9822 41.8969 60.8119 41.8323C60.6413 41.7676 60.4513 41.7353 60.2416 41.7353C60.0351 41.7353 59.845 41.7725 59.6713 41.8468C59.5009 41.9179 59.355 42.0181 59.2339 42.1474C59.1126 42.2766 59.0175 42.4285 58.9487 42.603C58.8798 42.7776 58.8454 42.9666 58.8454 43.1702C58.8454 43.377 58.8798 43.5693 58.9487 43.7471C59.0175 43.9248 59.1126 44.0783 59.2339 44.2076C59.355 44.3336 59.5009 44.4338 59.6713 44.5081C59.845 44.5793 60.0351 44.6148 60.2416 44.6148C60.4513 44.6148 60.6413 44.5841 60.8119 44.5227C60.9822 44.4581 61.128 44.3643 61.2493 44.2415C61.3738 44.1155 61.4689 43.9636 61.5344 43.7858C61.6032 43.6049 61.6377 43.3997 61.6377 43.1702ZM64.2824 40.7658H65.4376V45.6183H64.2824V40.7658ZM64.1547 39.04C64.1547 38.9431 64.1726 38.851 64.2087 38.7637C64.2481 38.6765 64.2989 38.6005 64.3611 38.5359C64.4234 38.4712 64.4971 38.4212 64.5823 38.3856C64.6675 38.3468 64.7592 38.3274 64.8575 38.3274C64.9559 38.3274 65.0493 38.3468 65.1377 38.3856C65.2263 38.4212 65.3033 38.4712 65.3688 38.5359C65.4343 38.6005 65.4851 38.6765 65.5212 38.7637C65.5573 38.851 65.5753 38.9431 65.5753 39.04C65.5753 39.137 65.5573 39.2291 65.5212 39.3163C65.4851 39.4036 65.4343 39.4796 65.3688 39.5442C65.3033 39.6088 65.2263 39.6589 65.1377 39.6945C65.0493 39.73 64.9559 39.7478 64.8575 39.7478C64.7592 39.7478 64.6675 39.73 64.5823 39.6945C64.4971 39.6589 64.4234 39.6088 64.3611 39.5442C64.2989 39.4796 64.2481 39.4036 64.2087 39.3163C64.1726 39.2291 64.1547 39.137 64.1547 39.04ZM68.5199 45.6183L66.3717 40.7658H67.6056L68.9328 43.9604L70.329 40.7658H71.5628L69.3261 45.6183H68.5199ZM73.888 45.6183L71.7399 40.7658H72.9737L74.3009 43.9604L75.6971 40.7658H76.9309L74.6942 45.6183H73.888ZM77.7814 40.7658H78.9367V45.6183H77.7814V40.7658ZM77.6537 39.04C77.6537 38.9431 77.6716 38.851 77.7077 38.7637C77.747 38.6765 77.7979 38.6005 77.8601 38.5359C77.9224 38.4712 77.9961 38.4212 78.0813 38.3856C78.1665 38.3468 78.2583 38.3274 78.3567 38.3274C78.4549 38.3274 78.5483 38.3468 78.6369 38.3856C78.7253 38.4212 78.8023 38.4712 78.8678 38.5359C78.9333 38.6005 78.9841 38.6765 79.0202 38.7637C79.0563 38.851 79.0743 38.9431 79.0743 39.04C79.0743 39.137 79.0563 39.2291 79.0202 39.3163C78.9841 39.4036 78.9333 39.4796 78.8678 39.5442C78.8023 39.6088 78.7253 39.6589 78.6369 39.6945C78.5483 39.73 78.4549 39.7478 78.3567 39.7478C78.2583 39.7478 78.1665 39.73 78.0813 39.6945C77.9961 39.6589 77.9224 39.6088 77.8601 39.5442C77.7979 39.4796 77.747 39.4036 77.7077 39.3163C77.6716 39.2291 77.6537 39.137 77.6537 39.04Z" fill="#010101"/>
</g>
<defs>
<clipPath id="clip0_2689_491">
<rect width="133.205" height="33" fill="white" transform="translate(0.102386)"/>
</clipPath>
<clipPath id="clip1_2689_491">
<rect width="36.6569" height="12.219" fill="white" transform="translate(43.4454 36)"/>
</clipPath>
</defs>
</svg>
