<svg width="393" height="852" viewBox="0 0 393 852" fill="none" xmlns="http://www.w3.org/2000/svg">
<rect width="393" height="852" fill="url(#paint0_radial_2546_679)"/>
<g clip-path="url(#clip0_2546_679)">
<path d="M101.877 451.792H97.5124L101.531 426.55H90L90.7004 422.142H118.178L117.477 426.55H105.892L101.873 451.792H101.877Z" fill="white"/>
<path d="M126.153 451.792C125.144 451.792 124.202 451.609 123.331 451.24C122.459 450.874 121.721 450.359 121.117 449.702C120.517 449.046 120.079 448.273 119.808 447.38C119.537 446.49 119.495 445.506 119.691 444.421L123.243 422.138H127.666L124.114 444.421C123.998 445.236 124.202 445.93 124.727 446.511C125.252 447.093 125.957 447.38 126.853 447.38H141.465C142.358 447.38 143.175 447.089 143.913 446.511C144.651 445.93 145.076 445.236 145.193 444.421L148.744 422.138H153.168L149.616 444.421C149.42 445.506 149.045 446.49 148.482 447.38C147.919 448.269 147.231 449.042 146.414 449.702C145.601 450.359 144.705 450.874 143.738 451.24C142.766 451.609 141.778 451.792 140.769 451.792H126.157H126.153Z" fill="white"/>
<path d="M242.938 451.792C222.526 451.589 211.529 438.081 211.529 422.229V400.183H222.689C243.1 400.345 254.098 413.853 254.098 429.704V451.788H242.938V451.792ZM242.938 441.475V430.677C242.938 414.459 231.048 410.496 222.689 410.496V421.294C222.689 437.474 234.621 441.475 242.938 441.475Z" fill="white"/>
<path d="M187.766 410.462H207.631V400H187.766C172.291 400 164.111 409.004 164.111 426.039C164.111 443.075 172.291 452.004 187.766 452.004H211.529V441.542H187.766C178.419 441.542 174.609 437.05 174.609 426.039C174.609 415.029 178.419 410.462 187.766 410.462Z" fill="white"/>
<path d="M225.036 452H211.529V441.538C211.529 441.538 214.997 449.154 225.036 452Z" fill="white"/>
<path d="M240.036 400.386H254.094V410.209C254.094 410.209 250.071 403.233 240.036 400.386Z" fill="white"/>
<path d="M287.629 400.386H254.098V410.209H287.629C296.213 410.209 296.213 423.281 287.629 423.281H274.355C274.005 423.281 273.659 423.293 273.317 423.318C273.217 423.322 273.121 423.33 273.025 423.339C272.762 423.36 272.495 423.389 272.237 423.422C272.154 423.434 272.066 423.443 271.983 423.455C271.649 423.505 271.32 423.559 270.995 423.625C270.932 423.638 270.874 423.655 270.815 423.667C270.544 423.725 270.278 423.792 270.011 423.866C269.915 423.891 269.823 423.916 269.731 423.945C269.465 424.024 269.202 424.107 268.943 424.199C268.889 424.22 268.835 424.236 268.781 424.253C268.472 424.365 268.168 424.486 267.868 424.614C267.793 424.648 267.718 424.681 267.643 424.714C267.409 424.818 267.18 424.926 266.951 425.042C266.872 425.084 266.788 425.121 266.709 425.167C266.421 425.321 266.134 425.474 265.858 425.645C265.858 425.645 265.854 425.645 265.85 425.649C265.575 425.815 265.304 425.994 265.041 426.177C264.966 426.227 264.895 426.281 264.825 426.33C264.616 426.48 264.412 426.634 264.212 426.792C264.153 426.837 264.091 426.883 264.032 426.933C263.782 427.136 263.536 427.348 263.299 427.564C263.257 427.602 263.22 427.643 263.178 427.681C262.978 427.868 262.786 428.055 262.598 428.25C262.536 428.312 262.473 428.379 262.415 428.445C262.223 428.649 262.036 428.857 261.856 429.073C261.827 429.106 261.794 429.143 261.765 429.177C261.556 429.426 261.356 429.683 261.164 429.945C261.118 430.008 261.077 430.07 261.031 430.132C260.881 430.34 260.735 430.556 260.597 430.772C260.551 430.843 260.506 430.913 260.46 430.984C258.901 433.485 257.996 436.435 257.996 439.606V451.809H267.851V439.606C267.851 436.041 270.711 433.111 274.367 433.111H289.551C297.738 432.16 304.017 425.109 304.017 416.712C304.017 407.679 296.704 400.391 287.641 400.391L287.629 400.386Z" fill="white"/>
</g>
<mask id="mask0_2546_679" style="mask-type:luminance" maskUnits="userSpaceOnUse" x="133" y="748" width="43" height="42">
<path d="M175.93 748H133V790H175.93V748Z" fill="white"/>
</mask>
<g mask="url(#mask0_2546_679)">
<path d="M165.282 748H143.647C137.767 748 133 752.664 133 758.417V779.583C133 785.336 137.767 790 143.647 790H165.282C171.163 790 175.93 785.336 175.93 779.583V758.417C175.93 752.664 171.163 748 165.282 748Z" fill="white"/>
<path d="M148.822 756.999L142.2 763.478C141.636 764.029 141.636 764.924 142.2 765.476L158.076 781.007C158.639 781.559 159.554 781.559 160.118 781.007L166.739 774.529C167.303 773.977 167.303 773.083 166.739 772.531L150.864 756.999C150.3 756.448 149.386 756.448 148.822 756.999Z" fill="#0D0D0D"/>
<path d="M164.969 766.279V759.18C164.969 758.934 164.762 758.732 164.511 758.732H157.254C156.842 758.732 156.636 759.215 156.932 759.505L164.188 766.604C164.475 766.885 164.978 766.683 164.978 766.288L164.969 766.279Z" fill="#0D0D0D"/>
<path d="M143.961 771.729V778.829C143.961 779.074 144.167 779.276 144.419 779.276H151.675C152.088 779.276 152.294 778.794 151.998 778.504L144.741 771.405C144.454 771.124 143.952 771.326 143.952 771.721L143.961 771.729Z" fill="#0D0D0D"/>
</g>
<path d="M184.449 761.913H183.084V752.761H184.232L184.605 753.464C184.727 753.319 184.861 753.197 185.006 753.097C185.155 752.993 185.314 752.908 185.481 752.842C185.653 752.776 185.834 752.728 186.024 752.699C186.219 752.67 186.425 752.655 186.642 752.655C187.135 752.655 187.59 752.738 188.007 752.904C188.427 753.07 188.789 753.3 189.093 753.595C189.4 753.885 189.64 754.227 189.812 754.621C189.984 755.011 190.07 755.434 190.07 755.891C190.07 756.347 189.984 756.772 189.812 757.166C189.64 757.56 189.403 757.902 189.099 758.193C188.796 758.483 188.434 758.711 188.013 758.877C187.597 759.043 187.14 759.126 186.642 759.126C186.425 759.126 186.217 759.109 186.017 759.076C185.818 759.047 185.626 759.001 185.44 758.939C185.259 758.873 185.085 758.788 184.918 758.684C184.755 758.58 184.598 758.454 184.449 758.304V761.913ZM184.449 755.897C184.449 756.22 184.499 756.509 184.598 756.762C184.703 757.015 184.847 757.228 185.033 757.402C185.223 757.577 185.447 757.709 185.705 757.801C185.968 757.892 186.257 757.937 186.574 757.937C186.891 757.937 187.18 757.886 187.443 757.782C187.705 757.678 187.93 757.535 188.115 757.353C188.301 757.17 188.445 756.954 188.55 756.706C188.654 756.457 188.706 756.187 188.706 755.897C188.706 755.602 188.651 755.331 188.543 755.082C188.434 754.833 188.285 754.617 188.095 754.435C187.905 754.248 187.678 754.103 187.416 753.999C187.158 753.896 186.877 753.844 186.574 753.844C186.257 753.844 185.968 753.891 185.705 753.987C185.447 754.078 185.223 754.211 185.033 754.385C184.847 754.559 184.703 754.775 184.598 755.032C184.499 755.285 184.449 755.573 184.449 755.897ZM191.021 755.897C191.021 755.441 191.114 755.015 191.299 754.621C191.489 754.227 191.749 753.885 192.08 753.595C192.41 753.305 192.797 753.076 193.24 752.911C193.684 752.745 194.164 752.662 194.68 752.662C195.196 752.662 195.676 752.745 196.119 752.911C196.568 753.076 196.954 753.305 197.28 753.595C197.611 753.885 197.871 754.227 198.061 754.621C198.251 755.015 198.346 755.441 198.346 755.897C198.346 756.353 198.251 756.778 198.061 757.172C197.871 757.566 197.611 757.908 197.28 758.199C196.954 758.485 196.568 758.711 196.119 758.877C195.676 759.043 195.196 759.126 194.68 759.126C194.164 759.126 193.684 759.043 193.24 758.877C192.797 758.711 192.41 758.485 192.08 758.199C191.749 757.908 191.489 757.566 191.299 757.172C191.114 756.778 191.021 756.353 191.021 755.897ZM192.385 755.897C192.385 756.187 192.444 756.457 192.562 756.706C192.684 756.954 192.849 757.17 193.058 757.353C193.266 757.535 193.508 757.678 193.783 757.782C194.064 757.886 194.363 757.937 194.68 757.937C194.997 757.937 195.295 757.886 195.576 757.782C195.857 757.678 196.101 757.535 196.31 757.353C196.517 757.17 196.681 756.954 196.798 756.706C196.92 756.457 196.981 756.187 196.981 755.897C196.981 755.606 196.92 755.337 196.798 755.088C196.681 754.839 196.517 754.623 196.31 754.441C196.101 754.254 195.857 754.109 195.576 754.005C195.295 753.902 194.997 753.85 194.68 753.85C194.363 753.85 194.064 753.902 193.783 754.005C193.508 754.109 193.266 754.254 193.058 754.441C192.849 754.623 192.684 754.839 192.562 755.088C192.444 755.337 192.385 755.606 192.385 755.897ZM208.258 752.761H209.717L207.083 758.989H205.936L204.368 754.466L202.685 758.989H201.543L199.032 752.761H200.491L202.127 757.234L203.75 752.761H205.02L206.595 757.216L208.258 752.761ZM216.785 757.172V758.448C216.441 758.684 216.027 758.856 215.543 758.964C215.062 759.072 214.554 759.126 214.015 759.126C213.476 759.126 212.985 759.043 212.542 758.877C212.098 758.711 211.716 758.483 211.394 758.193C211.078 757.902 210.831 757.56 210.655 757.166C210.483 756.772 210.397 756.347 210.397 755.891C210.397 755.434 210.485 755.011 210.661 754.621C210.837 754.227 211.078 753.885 211.38 753.595C211.684 753.305 212.039 753.076 212.447 752.911C212.859 752.745 213.296 752.662 213.757 752.662C214.237 752.662 214.68 752.738 215.088 752.892C215.5 753.045 215.855 753.259 216.154 753.533C216.457 753.806 216.692 754.134 216.859 754.516C217.032 754.893 217.118 755.31 217.118 755.766V756.195H211.788C211.825 756.453 211.897 756.689 212.005 756.905C212.118 757.12 212.273 757.305 212.467 757.458C212.667 757.612 212.908 757.732 213.193 757.819C213.483 757.902 213.825 757.944 214.219 757.944C214.663 757.944 215.109 757.886 215.556 757.769C216.004 757.649 216.414 757.45 216.785 757.172ZM213.757 753.85C213.495 753.85 213.257 753.889 213.045 753.968C212.832 754.043 212.644 754.144 212.481 754.273C212.323 754.397 212.191 754.543 212.087 754.709C211.987 754.87 211.918 755.038 211.877 755.212H215.631C215.604 755.001 215.54 754.812 215.44 754.646C215.346 754.476 215.217 754.333 215.054 754.217C214.896 754.097 214.708 754.005 214.491 753.943C214.273 753.881 214.028 753.85 213.757 753.85ZM222.162 752.73L222.576 754.068C222.431 753.997 222.279 753.943 222.121 753.906C221.963 753.869 221.797 753.85 221.626 753.85C221.304 753.85 221.039 753.898 220.831 753.993C220.627 754.084 220.467 754.219 220.349 754.397C220.231 754.572 220.15 754.785 220.105 755.038C220.059 755.291 220.036 755.577 220.036 755.897V758.989H218.672V752.761H219.819L220.193 753.464C220.306 753.336 220.415 753.224 220.519 753.128C220.627 753.029 220.74 752.948 220.859 752.886C220.976 752.819 221.103 752.769 221.238 752.736C221.374 752.703 221.526 752.687 221.694 752.687C221.78 752.687 221.861 752.691 221.938 752.699C222.014 752.703 222.089 752.713 222.162 752.73ZM229.766 757.172V758.448C229.422 758.684 229.007 758.856 228.523 758.964C228.043 759.072 227.534 759.126 226.995 759.126C226.457 759.126 225.966 759.043 225.523 758.877C225.079 758.711 224.696 758.483 224.375 758.193C224.058 757.902 223.811 757.56 223.635 757.166C223.463 756.772 223.377 756.347 223.377 755.891C223.377 755.434 223.466 755.011 223.642 754.621C223.818 754.227 224.058 753.885 224.361 753.595C224.665 753.305 225.02 753.076 225.428 752.911C225.84 752.745 226.276 752.662 226.737 752.662C227.217 752.662 227.661 752.738 228.069 752.892C228.481 753.045 228.835 753.259 229.134 753.533C229.437 753.806 229.673 754.134 229.841 754.516C230.013 754.893 230.099 755.31 230.099 755.766V756.195H224.769C224.805 756.453 224.878 756.689 224.986 756.905C225.099 757.12 225.253 757.305 225.448 757.458C225.647 757.612 225.889 757.732 226.174 757.819C226.464 757.902 226.805 757.944 227.2 757.944C227.643 757.944 228.089 757.886 228.537 757.769C228.985 757.649 229.395 757.45 229.766 757.172ZM226.737 753.85C226.475 753.85 226.238 753.889 226.025 753.968C225.812 754.043 225.624 754.144 225.462 754.273C225.303 754.397 225.171 754.543 225.067 754.709C224.968 754.87 224.898 755.038 224.857 755.212H228.612C228.584 755.001 228.52 754.812 228.421 754.646C228.326 754.476 228.197 754.333 228.035 754.217C227.876 754.097 227.688 754.005 227.471 753.943C227.253 753.881 227.009 753.85 226.737 753.85ZM236.67 749.75L238.034 750.341V758.989H236.887L236.513 758.286C236.392 758.431 236.255 758.555 236.107 758.659C235.962 758.759 235.803 758.842 235.631 758.908C235.464 758.974 235.283 759.022 235.088 759.051C234.898 759.08 234.695 759.095 234.477 759.095C233.984 759.095 233.527 759.012 233.105 758.846C232.689 758.68 232.328 758.452 232.019 758.161C231.717 757.867 231.478 757.523 231.306 757.129C231.134 756.735 231.048 756.312 231.048 755.859C231.048 755.403 231.134 754.978 231.306 754.584C231.478 754.19 231.717 753.848 232.019 753.558C232.322 753.267 232.685 753.039 233.105 752.873C233.527 752.707 233.984 752.624 234.477 752.624C234.695 752.624 234.905 752.641 235.108 752.674C235.312 752.703 235.507 752.751 235.692 752.817C235.878 752.879 236.052 752.962 236.215 753.066C236.382 753.17 236.534 753.296 236.67 753.446V749.75ZM236.67 755.853C236.67 755.53 236.618 755.241 236.513 754.988C236.414 754.735 236.269 754.522 236.079 754.348C235.894 754.173 235.67 754.041 235.407 753.949C235.149 753.858 234.861 753.813 234.545 753.813C234.228 753.813 233.939 753.864 233.676 753.968C233.414 754.072 233.19 754.215 233.004 754.397C232.819 754.58 232.673 754.796 232.569 755.044C232.466 755.293 232.414 755.563 232.414 755.853C232.414 756.148 232.466 756.421 232.569 756.675C232.673 756.923 232.819 757.139 233.004 757.321C233.19 757.504 233.414 757.647 233.676 757.751C233.939 757.854 234.228 757.906 234.545 757.906C234.861 757.906 235.149 757.861 235.407 757.769C235.67 757.678 235.894 757.545 236.079 757.371C236.269 757.193 236.414 756.977 236.513 756.724C236.618 756.467 236.67 756.177 236.67 755.853ZM243.656 758.989V749.75L245.02 750.341V753.446C245.156 753.296 245.306 753.17 245.468 753.066C245.636 752.962 245.812 752.879 245.998 752.817C246.184 752.751 246.378 752.703 246.582 752.674C246.786 752.641 246.996 752.624 247.213 752.624C247.711 752.624 248.168 752.707 248.585 752.873C249.005 753.039 249.368 753.267 249.671 753.558C249.974 753.848 250.211 754.19 250.383 754.584C250.555 754.978 250.641 755.403 250.641 755.859C250.641 756.312 250.555 756.735 250.383 757.129C250.211 757.523 249.971 757.867 249.664 758.161C249.361 758.452 248.999 758.68 248.578 758.846C248.161 759.012 247.707 759.095 247.213 759.095C246.996 759.095 246.787 759.078 246.589 759.045C246.394 759.016 246.209 758.97 246.031 758.908C245.855 758.842 245.688 758.757 245.529 758.653C245.371 758.545 245.224 758.416 245.089 758.267V758.989H243.656ZM245.02 755.853C245.02 756.177 245.07 756.467 245.169 756.724C245.274 756.977 245.419 757.193 245.604 757.371C245.794 757.545 246.019 757.678 246.276 757.769C246.539 757.861 246.828 757.906 247.146 757.906C247.462 757.906 247.752 757.854 248.015 757.751C248.277 757.647 248.501 757.504 248.686 757.321C248.872 757.139 249.016 756.923 249.121 756.675C249.225 756.421 249.277 756.148 249.277 755.853C249.277 755.563 249.225 755.293 249.121 755.044C249.016 754.796 248.872 754.58 248.686 754.397C248.501 754.215 248.277 754.072 248.015 753.968C247.752 753.864 247.462 753.813 247.146 753.813C246.828 753.813 246.539 753.858 246.276 753.949C246.019 754.041 245.794 754.173 245.604 754.348C245.419 754.522 245.274 754.735 245.169 754.988C245.07 755.241 245.02 755.53 245.02 755.853ZM254.036 758.746L251.252 752.761H252.678L254.701 757.297L256.82 752.761H258.211L253.955 762L252.78 761.49L254.036 758.746Z" fill="white"/>
<path d="M195.994 763.856L199.996 765.506V788.6H196.675L195.857 786.967C195.562 787.311 195.239 787.606 194.887 787.85C194.535 788.083 194.154 788.278 193.746 788.433C193.348 788.589 192.923 788.7 192.468 788.767C192.014 788.833 191.537 788.867 191.037 788.867C189.789 788.867 188.636 788.644 187.58 788.2C186.524 787.756 185.61 787.145 184.838 786.367C184.078 785.579 183.476 784.656 183.033 783.601C182.601 782.546 182.386 781.413 182.386 780.202C182.386 778.98 182.601 777.841 183.033 776.786C183.476 775.731 184.078 774.814 184.838 774.037C185.599 773.259 186.507 772.648 187.563 772.204C188.631 771.76 189.789 771.538 191.037 771.538C191.526 771.538 191.997 771.576 192.451 771.654C192.905 771.721 193.343 771.826 193.762 771.971C194.183 772.115 194.58 772.304 194.955 772.537C195.329 772.77 195.676 773.054 195.994 773.387V763.856ZM196.028 780.185C196.028 779.408 195.908 778.713 195.67 778.103C195.443 777.492 195.114 776.975 194.682 776.553C194.262 776.131 193.757 775.809 193.167 775.587C192.576 775.364 191.918 775.253 191.191 775.253C190.476 775.253 189.817 775.381 189.215 775.636C188.625 775.881 188.119 776.225 187.7 776.67C187.28 777.114 186.95 777.636 186.712 778.236C186.473 778.836 186.354 779.486 186.354 780.185C186.354 780.896 186.473 781.557 186.712 782.168C186.95 782.779 187.28 783.307 187.7 783.751C188.119 784.184 188.625 784.529 189.215 784.784C189.817 785.029 190.476 785.151 191.191 785.151C191.918 785.151 192.576 785.045 193.167 784.834C193.757 784.612 194.262 784.29 194.682 783.868C195.114 783.435 195.443 782.913 195.67 782.301C195.908 781.68 196.028 780.974 196.028 780.185ZM205.191 771.921H209.193V788.6H205.191V771.921ZM204.748 765.989C204.748 765.656 204.81 765.339 204.935 765.039C205.072 764.739 205.248 764.478 205.463 764.256C205.679 764.034 205.935 763.862 206.23 763.739C206.525 763.606 206.843 763.539 207.183 763.539C207.524 763.539 207.848 763.606 208.154 763.739C208.461 763.862 208.728 764.034 208.955 764.256C209.182 764.478 209.358 764.739 209.483 765.039C209.608 765.339 209.67 765.656 209.67 765.989C209.67 766.322 209.608 766.639 209.483 766.939C209.358 767.239 209.182 767.5 208.955 767.722C208.728 767.944 208.461 768.116 208.154 768.238C207.848 768.36 207.524 768.422 207.183 768.422C206.843 768.422 206.525 768.36 206.23 768.238C205.935 768.116 205.679 767.944 205.463 767.722C205.248 767.5 205.072 767.239 204.935 766.939C204.81 766.639 204.748 766.322 204.748 765.989ZM219.872 788.6L212.429 771.921H216.704L221.302 782.901L226.139 771.921H230.414L222.665 788.6H219.872ZM238.47 788.6L231.027 771.921H235.302L239.9 782.901L244.738 771.921H249.012L241.263 788.6H238.47ZM251.959 771.921H255.962V788.6H251.959V771.921ZM251.516 765.989C251.516 765.656 251.578 765.339 251.703 765.039C251.84 764.739 252.016 764.478 252.231 764.256C252.447 764.034 252.703 763.862 252.998 763.739C253.293 763.606 253.611 763.539 253.952 763.539C254.292 763.539 254.616 763.606 254.923 763.739C255.229 763.862 255.496 764.034 255.723 764.256C255.95 764.478 256.126 764.739 256.251 765.039C256.376 765.339 256.438 765.656 256.438 765.989C256.438 766.322 256.376 766.639 256.251 766.939C256.126 767.239 255.95 767.5 255.723 767.722C255.496 767.944 255.229 768.116 254.923 768.238C254.616 768.36 254.292 768.422 253.952 768.422C253.611 768.422 253.293 768.36 252.998 768.238C252.703 768.116 252.447 767.944 252.231 767.722C252.016 767.5 251.84 767.239 251.703 766.939C251.578 766.639 251.516 766.322 251.516 765.989Z" fill="white"/>
<defs>
<radialGradient id="paint0_radial_2546_679" cx="0" cy="0" r="1" gradientUnits="userSpaceOnUse" gradientTransform="translate(393 1.945e-05) rotate(108.612) scale(614.117 283.272)">
<stop stop-color="#2F4ACD"/>
<stop offset="1" stop-color="#0D0D0D"/>
</radialGradient>
<clipPath id="clip0_2546_679">
<rect width="214" height="52" fill="white" transform="translate(90 400)"/>
</clipPath>
</defs>
</svg>
