<svg width="134" height="50" viewBox="0 0 134 50" fill="none" xmlns="http://www.w3.org/2000/svg">
<g clip-path="url(#clip0_2648_3622)">
<path d="M7.39306 32.8679H4.67613L7.17768 16.8491H0L0.435954 14.0515H17.5394L17.1034 16.8491H9.89201L7.39046 32.8679H7.39306Z" fill="#102266"/>
<path d="M22.5036 32.8682C21.8756 32.8682 21.2891 32.7521 20.7468 32.5175C20.2044 32.2854 19.7451 31.9584 19.3688 31.5418C18.9952 31.1252 18.7227 30.6348 18.554 30.0678C18.3854 29.5036 18.3594 28.8786 18.4814 28.1904L20.6923 14.0491H23.4455L21.2346 28.1904C21.162 28.7072 21.2891 29.1476 21.6161 29.5167C21.9431 29.8859 22.3816 30.0678 22.9395 30.0678H32.0349C32.5902 30.0678 33.0988 29.8833 33.5581 29.5167C34.0174 29.1476 34.2821 28.7072 34.3548 28.1904L36.5657 14.0491H39.3189L37.108 28.1904C36.9861 28.8786 36.7525 29.5036 36.4022 30.0678C36.0519 30.6321 35.6237 31.1226 35.1151 31.5418C34.6091 31.9584 34.0512 32.2854 33.4491 32.5175C32.8445 32.7521 32.2295 32.8682 31.6015 32.8682H22.5062H22.5036Z" fill="#102266"/>
<path d="M95.1963 32.8682C82.4913 32.7389 75.6458 24.1666 75.6458 14.1071V0.11602H82.5925C95.2975 0.218857 102.143 8.79121 102.143 18.8507V32.8655H95.1963V32.8682ZM95.1963 26.3209V19.4678C95.1963 9.17619 87.7954 6.66065 82.5925 6.66065V13.5138C82.5925 23.7816 90.0193 26.3209 95.1963 26.3209Z" fill="#2F4ACD"/>
<path d="M60.8545 6.63955H73.2195V0H60.8545C51.222 0 46.1307 5.71402 46.1307 16.525C46.1307 27.3361 51.222 33.0026 60.8545 33.0026H75.6458V26.3631H60.8545C55.0366 26.3631 52.6648 23.5127 52.6648 16.525C52.6648 9.53743 55.0366 6.63955 60.8545 6.63955Z" fill="#102266"/>
<path d="M84.0535 33H75.6458V26.3604C75.6458 26.3604 77.8048 31.1938 84.0535 33Z" fill="#102266"/>
<path d="M93.3902 0.245224H102.14V6.4787C102.14 6.4787 99.6363 2.05146 93.3902 0.245224Z" fill="#102266"/>
<path d="M123.014 0.245224H102.143V6.4787H123.014C128.357 6.4787 128.357 14.7742 123.014 14.7742H114.752C114.534 14.7742 114.319 14.7821 114.106 14.7979C114.044 14.8006 113.984 14.8058 113.924 14.8111C113.761 14.8243 113.595 14.8427 113.434 14.8638C113.382 14.8718 113.327 14.877 113.275 14.8849C113.068 14.9166 112.863 14.9509 112.66 14.993C112.621 15.001 112.585 15.0115 112.549 15.0194C112.38 15.0563 112.214 15.0985 112.048 15.146C111.988 15.1618 111.931 15.1776 111.874 15.1961C111.708 15.2462 111.545 15.2989 111.384 15.3569C111.35 15.3701 111.316 15.3807 111.282 15.3912C111.09 15.4624 110.901 15.5389 110.714 15.6206C110.667 15.6417 110.621 15.6628 110.574 15.6839C110.429 15.7498 110.286 15.8184 110.143 15.8922C110.094 15.9186 110.042 15.9423 109.993 15.9713C109.814 16.0689 109.635 16.1664 109.463 16.2745C109.463 16.2745 109.461 16.2745 109.458 16.2772C109.287 16.3827 109.118 16.496 108.955 16.6121C108.908 16.6437 108.864 16.678 108.82 16.7096C108.69 16.8046 108.563 16.9021 108.438 17.0023C108.402 17.0313 108.363 17.0603 108.327 17.092C108.171 17.2212 108.018 17.3557 107.87 17.4928C107.844 17.5165 107.821 17.5429 107.795 17.5666C107.67 17.6853 107.551 17.8039 107.434 17.9278C107.395 17.9674 107.356 18.0096 107.32 18.0518C107.201 18.181 107.084 18.3128 106.972 18.4499C106.954 18.471 106.933 18.4948 106.915 18.5159C106.785 18.6741 106.661 18.8376 106.541 19.0037C106.513 19.0432 106.487 19.0828 106.458 19.1223C106.365 19.2542 106.274 19.3913 106.189 19.5284C106.16 19.5732 106.131 19.6181 106.103 19.6629C105.132 21.2503 104.569 23.1224 104.569 25.1343V32.8787H110.704V25.1343C110.704 22.8719 112.484 21.0129 114.76 21.0129H124.211C129.307 20.4091 133.215 15.9344 133.215 10.6054C133.215 4.87287 128.664 0.247861 123.022 0.247861L123.014 0.245224Z" fill="#102266"/>
</g>
<path d="M27.1774 45V39.773H29.4474C29.7909 39.773 30.0871 39.8352 30.336 39.9597C30.5899 40.0841 30.7865 40.2608 30.9259 40.4898C31.0653 40.7139 31.135 40.9777 31.135 41.2814C31.135 41.585 31.0653 41.8514 30.9259 42.0803C30.7865 42.3044 30.5899 42.4811 30.336 42.6105C30.0821 42.735 29.7859 42.7972 29.4474 42.7972H27.7524V45H27.1774ZM27.7524 42.2969H29.4026C29.756 42.2969 30.0373 42.2073 30.2464 42.0281C30.4555 41.8439 30.56 41.5975 30.56 41.2888C30.56 40.9802 30.4555 40.7363 30.2464 40.557C30.0373 40.3778 29.756 40.2882 29.4026 40.2882H27.7524V42.2969ZM33.1279 45.0747C32.7744 45.0747 32.4509 44.99 32.1572 44.8208C31.8684 44.6466 31.6394 44.4126 31.4702 44.1189C31.3009 43.8252 31.2163 43.4966 31.2163 43.1332C31.2163 42.7698 31.3009 42.4413 31.4702 42.1475C31.6394 41.8538 31.8684 41.6224 32.1572 41.4531C32.4509 41.2789 32.7744 41.1918 33.1279 41.1918C33.4863 41.1918 33.8099 41.2789 34.0986 41.4531C34.3874 41.6224 34.6163 41.8538 34.7856 42.1475C34.9549 42.4413 35.0395 42.7698 35.0395 43.1332C35.0395 43.4966 34.9549 43.8252 34.7856 44.1189C34.6163 44.4126 34.3874 44.6466 34.0986 44.8208C33.8099 44.99 33.4863 45.0747 33.1279 45.0747ZM33.1279 44.5818C33.3818 44.5818 33.6108 44.5171 33.8149 44.3877C34.024 44.2583 34.1882 44.084 34.3077 43.865C34.4322 43.646 34.4944 43.402 34.4944 43.1332C34.4944 42.8594 34.4322 42.6155 34.3077 42.4014C34.1882 42.1824 34.024 42.0082 33.8149 41.8787C33.6108 41.7493 33.3818 41.6846 33.1279 41.6846C32.874 41.6846 32.6425 41.7493 32.4334 41.8787C32.2293 42.0082 32.0651 42.1824 31.9406 42.4014C31.8211 42.6155 31.7614 42.8594 31.7614 43.1332C31.7614 43.402 31.8211 43.646 31.9406 43.865C32.0651 44.084 32.2293 44.2583 32.4334 44.3877C32.6425 44.5171 32.874 44.5818 33.1279 44.5818ZM36.3465 45L35.2936 41.259H35.8387L36.6452 44.2458L37.5785 41.259H38.0714L38.9973 44.2458L39.8112 41.259H40.3339L39.2736 45H38.7434L37.8175 42.0057L36.8841 45H36.3465ZM42.517 45.0672C42.1586 45.0672 41.8325 44.9826 41.5388 44.8133C41.2501 44.6391 41.0186 44.4051 40.8444 44.1114C40.6751 43.8177 40.5905 43.4891 40.5905 43.1257C40.5905 42.7673 40.6726 42.4437 40.8369 42.155C41.0012 41.8613 41.2227 41.6298 41.5015 41.4606C41.7803 41.2863 42.0914 41.1992 42.4349 41.1992C42.7684 41.1992 43.0671 41.2863 43.3309 41.4606C43.5998 41.6298 43.8113 41.8613 43.9656 42.155C44.1249 42.4437 44.2046 42.7673 44.2046 43.1257V43.2975H41.1356C41.1655 43.5414 41.2426 43.7605 41.3671 43.9546C41.4965 44.1487 41.6633 44.3031 41.8674 44.4176C42.0715 44.5271 42.2955 44.5818 42.5394 44.5818C42.7336 44.5818 42.9227 44.552 43.1069 44.4922C43.2911 44.4325 43.4454 44.3479 43.5699 44.2384L43.9134 44.6042C43.7043 44.7586 43.4853 44.8755 43.2563 44.9552C43.0323 45.0299 42.7858 45.0672 42.517 45.0672ZM41.1505 42.8569H43.652C43.6222 42.6329 43.5475 42.4338 43.428 42.2596C43.3135 42.0803 43.1692 41.941 42.9949 41.8414C42.8207 41.7369 42.629 41.6846 42.4199 41.6846C42.2059 41.6846 42.0093 41.7344 41.83 41.8339C41.6508 41.9335 41.5015 42.0729 41.382 42.2521C41.2625 42.4263 41.1854 42.6279 41.1505 42.8569ZM44.9024 45V41.259H45.455V41.7891C45.5695 41.595 45.7139 41.4456 45.8881 41.3411C46.0673 41.2316 46.2714 41.1768 46.5004 41.1768C46.6298 41.1768 46.7468 41.1942 46.8514 41.2291V41.7369C46.7866 41.712 46.7219 41.6945 46.6572 41.6846C46.5925 41.6746 46.5278 41.6696 46.4631 41.6696C46.2341 41.6696 46.0325 41.7369 45.8582 41.8713C45.689 42.0007 45.5546 42.1899 45.455 42.4388V45H44.9024ZM48.9014 45.0672C48.543 45.0672 48.2169 44.9826 47.9232 44.8133C47.6345 44.6391 47.403 44.4051 47.2288 44.1114C47.0595 43.8177 46.9749 43.4891 46.9749 43.1257C46.9749 42.7673 47.0571 42.4437 47.2213 42.155C47.3856 41.8613 47.6071 41.6298 47.8859 41.4606C48.1647 41.2863 48.4758 41.1992 48.8193 41.1992C49.1528 41.1992 49.4515 41.2863 49.7154 41.4606C49.9842 41.6298 50.1957 41.8613 50.3501 42.155C50.5094 42.4437 50.589 42.7673 50.589 43.1257V43.2975H47.52C47.5499 43.5414 47.627 43.7605 47.7515 43.9546C47.8809 44.1487 48.0477 44.3031 48.2518 44.4176C48.4559 44.5271 48.6799 44.5818 48.9238 44.5818C49.118 44.5818 49.3072 44.552 49.4913 44.4922C49.6755 44.4325 49.8299 44.3479 49.9543 44.2384L50.2978 44.6042C50.0887 44.7586 49.8697 44.8755 49.6407 44.9552C49.4167 45.0299 49.1703 45.0672 48.9014 45.0672ZM47.5349 42.8569H50.0364C50.0066 42.6329 49.9319 42.4338 49.8124 42.2596C49.6979 42.0803 49.5536 41.941 49.3793 41.8414C49.2051 41.7369 49.0134 41.6846 48.8044 41.6846C48.5903 41.6846 48.3937 41.7344 48.2145 41.8339C48.0352 41.9335 47.8859 42.0729 47.7664 42.2521C47.647 42.4263 47.5698 42.6279 47.5349 42.8569ZM52.9968 45.0597C52.6484 45.0597 52.3298 44.9751 52.041 44.8059C51.7573 44.6316 51.5308 44.4001 51.3615 44.1114C51.1972 43.8177 51.1151 43.4891 51.1151 43.1257C51.1151 42.7623 51.1972 42.4363 51.3615 42.1475C51.5308 41.8588 51.7573 41.6298 52.041 41.4606C52.3298 41.2863 52.6508 41.1992 53.0043 41.1992C53.2233 41.1992 53.4349 41.2366 53.639 41.3112C53.8431 41.3809 54.0298 41.4855 54.199 41.6248V39.773L54.7516 39.6461V45H54.2065V44.6042C53.8779 44.9079 53.4747 45.0597 52.9968 45.0597ZM53.0491 44.5744C53.2831 44.5744 53.4996 44.5296 53.6987 44.44C53.9028 44.3454 54.0696 44.2159 54.199 44.0517V42.1998C54.0696 42.0405 53.9028 41.9161 53.6987 41.8265C53.4996 41.7319 53.2831 41.6846 53.0491 41.6846C52.7902 41.6846 52.5538 41.7468 52.3397 41.8713C52.1306 41.9957 51.9639 42.1675 51.8394 42.3865C51.7199 42.6006 51.6602 42.8445 51.6602 43.1183C51.6602 43.3921 51.7199 43.6385 51.8394 43.8575C51.9639 44.0766 52.1306 44.2508 52.3397 44.3802C52.5538 44.5097 52.7902 44.5744 53.0491 44.5744ZM57.1462 45V39.773L57.6988 39.6461V41.6547C58.0174 41.3511 58.4181 41.1992 58.901 41.1992C59.2544 41.1992 59.573 41.2863 59.8568 41.4606C60.1406 41.6298 60.3646 41.8588 60.5288 42.1475C60.6981 42.4363 60.7827 42.7623 60.7827 43.1257C60.7827 43.4891 60.6981 43.8177 60.5288 44.1114C60.3646 44.4001 60.1406 44.6316 59.8568 44.8059C59.573 44.9751 59.252 45.0597 58.8935 45.0597C58.6745 45.0597 58.4604 45.0224 58.2514 44.9477C58.0473 44.8731 57.8606 44.766 57.6913 44.6266V45H57.1462ZM58.8487 44.5744C59.1126 44.5744 59.349 44.5121 59.5581 44.3877C59.7672 44.2583 59.9315 44.0865 60.0509 43.8725C60.1754 43.6534 60.2376 43.407 60.2376 43.1332C60.2376 42.8594 60.1754 42.613 60.0509 42.394C59.9315 42.1749 59.7672 42.0032 59.5581 41.8787C59.349 41.7493 59.1126 41.6846 58.8487 41.6846C58.6148 41.6846 58.3957 41.7319 58.1916 41.8265C57.9925 41.9161 57.8282 42.043 57.6988 42.2073V44.0591C57.8282 44.2184 57.995 44.3454 58.1991 44.44C58.4032 44.5296 58.6197 44.5744 58.8487 44.5744ZM61.5234 46.598C61.4537 46.598 61.3865 46.593 61.3218 46.583C61.2621 46.5781 61.2123 46.5706 61.1725 46.5606V46.0603C61.2571 46.0802 61.3616 46.0902 61.4861 46.0902C61.8147 46.0902 62.0636 45.8961 62.2328 45.5078L62.4568 44.9925L60.9335 41.259H61.5458L62.7555 44.328L64.0623 41.259H64.6596L62.7929 45.5824C62.6883 45.8214 62.5763 46.0155 62.4568 46.1649C62.3374 46.3142 62.2005 46.4237 62.0461 46.4934C61.8968 46.5631 61.7226 46.598 61.5234 46.598Z" fill="#102266"/>
<g clip-path="url(#clip1_2648_3622)">
<mask id="mask0_2648_3622" style="mask-type:luminance" maskUnits="userSpaceOnUse" x="69" y="36" width="14" height="13">
<path d="M82.3366 36H69.9455V48.219H82.3366V36Z" fill="white"/>
</mask>
<g mask="url(#mask0_2648_3622)">
<path d="M79.2634 36H73.0187C71.3214 36 69.9455 37.3568 69.9455 39.0305V45.1885C69.9455 46.8622 71.3214 48.219 73.0187 48.219H79.2634C80.9607 48.219 82.3366 46.8622 82.3366 45.1885V39.0305C82.3366 37.3568 80.9607 36 79.2634 36Z" fill="#010101"/>
<path d="M74.5122 38.6182L72.6009 40.5029C72.4381 40.6634 72.4381 40.9237 72.6009 41.0842L77.1832 45.6028C77.346 45.7634 77.6099 45.7634 77.7727 45.6028L79.684 43.7181C79.8467 43.5575 79.8467 43.2974 79.684 43.1368L75.1017 38.6182C74.9389 38.4576 74.675 38.4576 74.5122 38.6182Z" fill="white"/>
<path d="M79.1728 41.318V39.2526C79.1728 39.1811 79.1132 39.1224 79.0407 39.1224H76.9462C76.8271 39.1224 76.7676 39.2628 76.853 39.347L78.9476 41.4125C79.0304 41.4942 79.1754 41.4354 79.1754 41.3206L79.1728 41.318Z" fill="white"/>
<path d="M73.1093 42.9035V44.9689C73.1093 45.0404 73.1688 45.0992 73.2413 45.0992H75.3358C75.455 45.0992 75.5145 44.9587 75.429 44.8744L73.3345 42.809C73.2517 42.7274 73.1067 42.7861 73.1067 42.901L73.1093 42.9035Z" fill="white"/>
</g>
<path d="M88.1278 38.4195L89.2832 38.8995V45.6183H88.3245L88.0885 45.1432C88.0033 45.2434 87.9099 45.329 87.8083 45.4001C87.7067 45.468 87.5969 45.5245 87.479 45.5698C87.3642 45.615 87.2414 45.6473 87.1102 45.6667C86.9792 45.6861 86.8415 45.6958 86.6973 45.6958C86.3369 45.6958 86.0042 45.6312 85.6993 45.5019C85.3946 45.3726 85.1308 45.1949 84.908 44.9687C84.6884 44.7392 84.5147 44.471 84.3869 44.164C84.2623 43.857 84.2001 43.5273 84.2001 43.175C84.2001 42.8196 84.2623 42.4883 84.3869 42.1813C84.5147 41.8743 84.6884 41.6076 84.908 41.3814C85.1275 41.1552 85.3897 40.9775 85.6945 40.8482C86.0026 40.7189 86.3369 40.6543 86.6973 40.6543C86.8382 40.6543 86.9742 40.6656 87.1054 40.6882C87.2365 40.7076 87.3627 40.7383 87.4838 40.7803C87.6051 40.8223 87.7199 40.8773 87.828 40.9451C87.9361 41.013 88.0361 41.0954 88.1278 41.1924V38.4195ZM88.1377 43.1702C88.1377 42.944 88.1032 42.742 88.0344 42.5642C87.9689 42.3865 87.8738 42.2362 87.7493 42.1134C87.628 41.9906 87.4823 41.8969 87.3119 41.8323C87.1414 41.7676 86.9513 41.7353 86.7416 41.7353C86.5351 41.7353 86.3451 41.7725 86.1713 41.8468C86.0009 41.9179 85.855 42.0181 85.7339 42.1474C85.6126 42.2766 85.5175 42.4285 85.4487 42.603C85.3799 42.7776 85.3455 42.9666 85.3455 43.1702C85.3455 43.377 85.3799 43.5693 85.4487 43.7471C85.5175 43.9248 85.6126 44.0783 85.7339 44.2076C85.855 44.3336 86.0009 44.4338 86.1713 44.5081C86.3451 44.5793 86.5351 44.6148 86.7416 44.6148C86.9513 44.6148 87.1414 44.5841 87.3119 44.5227C87.4823 44.4581 87.628 44.3643 87.7493 44.2415C87.8738 44.1155 87.9689 43.9636 88.0344 43.7858C88.1032 43.6049 88.1377 43.3997 88.1377 43.1702ZM90.7825 40.7658H91.9376V45.6183H90.7825V40.7658ZM90.6547 39.04C90.6547 38.9431 90.6727 38.851 90.7087 38.7637C90.7481 38.6765 90.7989 38.6005 90.8612 38.5359C90.9234 38.4712 90.9971 38.4212 91.0823 38.3856C91.1675 38.3468 91.2592 38.3274 91.3576 38.3274C91.4559 38.3274 91.5493 38.3468 91.6378 38.3856C91.7264 38.4212 91.8033 38.4712 91.8689 38.5359C91.9344 38.6005 91.9852 38.6765 92.0213 38.7637C92.0574 38.851 92.0753 38.9431 92.0753 39.04C92.0753 39.137 92.0574 39.2291 92.0213 39.3163C91.9852 39.4036 91.9344 39.4796 91.8689 39.5442C91.8033 39.6088 91.7264 39.6589 91.6378 39.6945C91.5493 39.73 91.4559 39.7478 91.3576 39.7478C91.2592 39.7478 91.1675 39.73 91.0823 39.6945C90.9971 39.6589 90.9234 39.6088 90.8612 39.5442C90.7989 39.4796 90.7481 39.4036 90.7087 39.3163C90.6727 39.2291 90.6547 39.137 90.6547 39.04ZM95.0199 45.6183L92.8718 40.7658H94.1056L95.4328 43.9604L96.829 40.7658H98.0628L95.8261 45.6183H95.0199ZM100.388 45.6183L98.2399 40.7658H99.4737L100.801 43.9604L102.197 40.7658H103.431L101.194 45.6183H100.388ZM104.281 40.7658H105.437V45.6183H104.281V40.7658ZM104.154 39.04C104.154 38.9431 104.172 38.851 104.208 38.7637C104.247 38.6765 104.298 38.6005 104.36 38.5359C104.422 38.4712 104.496 38.4212 104.581 38.3856C104.667 38.3468 104.758 38.3274 104.857 38.3274C104.955 38.3274 105.048 38.3468 105.137 38.3856C105.225 38.4212 105.302 38.4712 105.368 38.5359C105.433 38.6005 105.484 38.6765 105.52 38.7637C105.556 38.851 105.574 38.9431 105.574 39.04C105.574 39.137 105.556 39.2291 105.52 39.3163C105.484 39.4036 105.433 39.4796 105.368 39.5442C105.302 39.6088 105.225 39.6589 105.137 39.6945C105.048 39.73 104.955 39.7478 104.857 39.7478C104.758 39.7478 104.667 39.73 104.581 39.6945C104.496 39.6589 104.422 39.6088 104.36 39.5442C104.298 39.4796 104.247 39.4036 104.208 39.3163C104.172 39.2291 104.154 39.137 104.154 39.04Z" fill="#010101"/>
</g>
<defs>
<clipPath id="clip0_2648_3622">
<rect width="133.205" height="33" fill="white"/>
</clipPath>
<clipPath id="clip1_2648_3622">
<rect width="36.6569" height="12.219" fill="white" transform="translate(69.9455 36)"/>
</clipPath>
</defs>
</svg>
