<svg width="393" height="852" viewBox="0 0 393 852" fill="none" xmlns="http://www.w3.org/2000/svg">
<g clip-path="url(#clip0_2566_1828)">
<rect width="393" height="852" fill="url(#paint0_radial_2566_1828)"/>
<g clip-path="url(#clip1_2566_1828)">
<path d="M399.967 329.439L399.967 242.976L228.811 242.976C105.727 242.976 0.807308 328.179 -0.741344 486.312L-0.741347 572.774L170.737 572.774C293.821 572.774 398.709 487.571 399.967 329.439ZM79.3359 486.312C79.3359 421.876 110.438 329.439 236.038 329.439L319.89 329.439C319.89 394.197 289.111 486.312 163.188 486.312L79.3359 486.312Z" fill="url(#paint1_linear_2566_1828)" fill-opacity="0.76" stroke="white" stroke-opacity="0.11" stroke-miterlimit="10"/>
<path d="M79.271 241.361L79.271 57.2607C79.271 -15.1522 114.147 -44.6728 199.645 -44.6728C285.142 -44.6728 320.6 -15.1522 320.599 57.2607L320.599 211.162L401.806 211.162L401.806 57.2607C401.806 -62.6307 331.892 -126 199.613 -126C67.3336 -126 -1.99996 -62.6307 -1.99997 57.2607L-1.99998 346.008C20.1003 268.266 79.2387 241.361 79.2387 241.361L79.271 241.361Z" stroke="white" stroke-opacity="0.11" stroke-miterlimit="10"/>
<path d="M398.386 832.517L398.386 463.832C376.286 541.574 322.116 572.742 322.116 572.742L322.116 832.517C322.116 899.02 220.616 899.02 220.616 832.517L220.616 729.679C220.616 726.966 220.519 724.286 220.326 721.637C220.294 720.862 220.229 720.119 220.164 719.376C220.003 717.341 219.777 715.274 219.519 713.272C219.422 712.626 219.358 711.948 219.261 711.302C218.874 708.718 218.455 706.166 217.938 703.647C217.842 703.162 217.712 702.71 217.616 702.258C217.164 700.159 216.648 698.092 216.067 696.025C215.873 695.282 215.68 694.571 215.454 693.861C214.841 691.793 214.196 689.759 213.486 687.756C213.325 687.336 213.196 686.916 213.067 686.497C212.195 684.106 211.26 681.749 210.26 679.423C210.002 678.842 209.743 678.26 209.485 677.679C208.679 675.87 207.84 674.094 206.937 672.318C206.614 671.704 206.324 671.058 205.969 670.444C204.775 668.216 203.581 665.987 202.258 663.855C202.258 663.855 202.258 663.823 202.226 663.791C200.936 661.659 199.548 659.56 198.129 657.525C197.742 656.944 197.322 656.395 196.935 655.845C195.774 654.231 194.58 652.648 193.354 651.065C192.999 650.613 192.644 650.129 192.257 649.676C190.676 647.739 189.031 645.833 187.353 643.992C187.062 643.669 186.74 643.378 186.449 643.055C184.998 641.505 183.546 640.019 182.029 638.566C181.545 638.081 181.029 637.597 180.513 637.145C178.932 635.659 177.319 634.206 175.641 632.817C175.383 632.591 175.093 632.332 174.835 632.106C172.899 630.491 170.899 628.941 168.866 627.455C168.382 627.1 167.898 626.777 167.414 626.422C165.801 625.259 164.123 624.128 162.446 623.063C161.897 622.707 161.349 622.352 160.8 621.997C141.378 609.917 118.471 602.908 93.8541 602.908L-0.902795 602.908L-0.902798 679.262L93.8541 679.262C121.536 679.262 144.281 701.418 144.281 729.744L144.281 847.374C151.67 910.808 206.42 959.45 271.624 959.45C341.764 959.45 398.354 902.798 398.354 832.582L398.386 832.517Z" stroke="white" stroke-opacity="0.11" stroke-miterlimit="10"/>
</g>
</g>
<defs>
<radialGradient id="paint0_radial_2566_1828" cx="0" cy="0" r="1" gradientUnits="userSpaceOnUse" gradientTransform="translate(393 1.945e-05) rotate(108.612) scale(614.117 283.272)">
<stop stop-color="#2F4ACD"/>
<stop offset="1" stop-color="#0D0D0D"/>
</radialGradient>
<linearGradient id="paint1_linear_2566_1828" x1="-30.5" y1="158.5" x2="352.5" y2="525" gradientUnits="userSpaceOnUse">
<stop stop-color="#2F4ACD"/>
<stop offset="1" stop-color="#999999" stop-opacity="0"/>
</linearGradient>
<clipPath id="clip0_2566_1828">
<rect width="393" height="852" fill="white"/>
</clipPath>
<clipPath id="clip1_2566_1828">
<rect width="1087" height="407" fill="white" transform="translate(403 -126) rotate(90)"/>
</clipPath>
</defs>
</svg>
