<svg width="49" height="50" viewBox="0 0 49 50" fill="none" xmlns="http://www.w3.org/2000/svg">
<circle cx="24.5" cy="25" r="24.5" fill="#2F4ACD"/>
<path d="M32.1904 13.5H17.824C14.06 13.5 11 16.4938 11 20.1762V38.4479C11 38.8696 11.2586 39.2631 11.6609 39.4177C12.0631 39.5864 12.5228 39.488 12.8389 39.1929L16.3012 35.8056C16.6316 35.4682 17.0913 35.2855 17.5654 35.2855H32.176C35.94 35.2855 39 32.2918 39 28.6093V20.1762C39 16.4938 35.94 13.5 32.176 13.5H32.1904ZM36.8594 28.6093C36.8594 31.1252 34.7619 33.1772 32.1904 33.1772H17.5798C16.531 33.1772 15.5254 33.5848 14.7784 34.3157L13.155 35.904V20.1762C13.155 17.6603 15.2524 15.6083 17.824 15.6083H32.1904C34.7619 15.6083 36.8594 17.6603 36.8594 20.1762V28.6093ZM20.6973 24.3928C20.6973 25.1658 20.0508 25.7983 19.2607 25.7983C18.4705 25.7983 17.824 25.1658 17.824 24.3928C17.824 23.6197 18.4705 22.9872 19.2607 22.9872C20.0508 22.9872 20.6973 23.6197 20.6973 24.3928ZM26.4438 24.3928C26.4438 25.1658 25.7973 25.7983 25.0072 25.7983C24.217 25.7983 23.5706 25.1658 23.5706 24.3928C23.5706 23.6197 24.217 22.9872 25.0072 22.9872C25.7973 22.9872 26.4438 23.6197 26.4438 24.3928ZM32.1904 24.3928C32.1904 25.1658 31.5439 25.7983 30.7537 25.7983C29.9636 25.7983 29.3171 25.1658 29.3171 24.3928C29.3171 23.6197 29.9636 22.9872 30.7537 22.9872C31.5439 22.9872 32.1904 23.6197 32.1904 24.3928Z" fill="white"/>
</svg>
