<svg width="49" height="49" viewBox="0 0 49 49" fill="none" xmlns="http://www.w3.org/2000/svg">
<circle cx="24.5" cy="24.5" r="24.5" fill="#2F4ACD"/>
<path d="M31.4231 14H17.5769C13.9492 14 11 17.0232 11 20.7419V29.2581C11 32.9768 13.9492 36 17.5769 36H31.4231C35.0508 36 38 32.9768 38 29.2581V20.7419C38 17.0232 35.0508 14 31.4231 14ZM17.5769 16.129H31.4231C33.2369 16.129 34.8846 17.2645 35.5769 18.9819L26.9923 24.8439C25.4831 25.88 23.5169 25.88 22.0077 24.8439L13.4231 18.9819C14.1154 17.2503 15.7492 16.129 17.5769 16.129ZM31.4231 33.871H17.5769C15.0985 33.871 13.0769 31.7987 13.0769 29.2581V21.3097L20.8446 26.6181C23.0461 28.1368 25.94 28.1368 28.1415 26.6181L35.9092 21.3097V29.2581C35.9092 31.7987 33.8877 33.871 31.4092 33.871H31.4231Z" fill="white"/>
</svg>
